# This file uses centimeters as units for non-parametric coordinates.

mtllib dynamicSylvanas.mtl
g default
v -0.500000 -0.500000 0.500000
v 0.500000 -0.500000 0.500000
v -0.500000 0.500000 0.500000
v 0.500000 0.500000 0.500000
v -0.500000 0.500000 -0.500000
v 0.500000 0.500000 -0.500000
v -0.500000 -0.500000 -0.500000
v 0.500000 -0.500000 -0.500000
vt 0.008893 0.005807
vt 0.997279 0.005807
vt 0.008893 0.994193
vt 0.997279 0.994193
vt 0.008893 0.005807
vt 0.997279 0.005807
vt 0.008893 0.994193
vt 0.997279 0.994193
vt 0.008893 0.005807
vt 0.997279 0.005807
vt 0.008893 0.994193
vt 0.997279 0.994193
vt 0.008893 0.005807
vt 0.997280 0.005807
vt 0.008893 0.994194
vt 0.997280 0.994194
vt 0.008893 0.005807
vt 0.997279 0.005807
vt 0.008893 0.994193
vt 0.997279 0.994193
vt 0.008893 0.005807
vt 0.997279 0.005807
vt 0.008893 0.994194
vt 0.997279 0.994194
vn 0.000000 0.000000 1.000000
vn 0.000000 0.000000 1.000000
vn 0.000000 0.000000 1.000000
vn 0.000000 0.000000 1.000000
vn 0.000000 1.000000 0.000000
vn 0.000000 1.000000 0.000000
vn 0.000000 1.000000 0.000000
vn 0.000000 1.000000 0.000000
vn 0.000000 0.000000 -1.000000
vn 0.000000 0.000000 -1.000000
vn 0.000000 0.000000 -1.000000
vn 0.000000 0.000000 -1.000000
vn 0.000000 -1.000000 0.000000
vn 0.000000 -1.000000 0.000000
vn 0.000000 -1.000000 0.000000
vn 0.000000 -1.000000 0.000000
vn 1.000000 0.000000 0.000000
vn 1.000000 0.000000 0.000000
vn 1.000000 0.000000 0.000000
vn 1.000000 0.000000 0.000000
vn -1.000000 0.000000 0.000000
vn -1.000000 0.000000 0.000000
vn -1.000000 0.000000 0.000000
vn -1.000000 0.000000 0.000000
s 1
g pCube2
usemtl phong1SG
f 1/17/1 2/18/2 3/19/3
f 3/19/3 2/18/2 4/20/4
s 2
f 3/9/5 4/10/6 5/11/7
f 5/11/7 4/10/6 6/12/8
s 3
f 5/21/9 6/22/10 7/23/11
f 7/23/11 6/22/10 8/24/12
s 4
f 7/13/13 8/14/14 1/15/15
f 1/15/15 8/14/14 2/16/16
s 5
f 2/1/17 8/2/18 4/3/19
f 4/3/19 8/2/18 6/4/20
s 6
f 7/5/21 1/6/22 5/7/23
f 5/7/23 1/6/22 3/8/24
