# This file uses centimeters as units for non-parametric coordinates.

mtllib falloutQuad.mtl
g default
v -1.125000 1.125000 0.000000
v -1.125000 0.900000 0.000000
v -1.125000 0.675000 0.000000
v -1.125000 0.450000 0.000000
v -1.125000 0.225000 0.000000
v -1.125000 0.000000 0.000000
v -1.125000 -0.225000 0.000000
v -1.125000 -0.450000 0.000000
v -1.125000 -0.675000 0.000000
v -1.125000 -0.900000 0.000000
v -1.125000 -1.125000 0.000000
v -0.900000 1.125000 0.000000
v -0.900000 0.900000 0.000000
v -0.900000 0.675000 0.000000
v -0.900000 0.450000 0.000000
v -0.900000 0.225000 0.000000
v -0.900000 0.000000 0.000000
v -0.900000 -0.225000 0.000000
v -0.900000 -0.450000 0.000000
v -0.900000 -0.675000 0.000000
v -0.900000 -0.900000 0.000000
v -0.900000 -1.125000 0.000000
v -0.675000 1.125000 0.000000
v -0.675000 0.900000 0.000000
v -0.675000 0.675000 0.000000
v -0.675000 0.450000 0.000000
v -0.675000 0.225000 0.000000
v -0.675000 0.000000 0.000000
v -0.675000 -0.225000 0.000000
v -0.675000 -0.450000 0.000000
v -0.675000 -0.675000 0.000000
v -0.675000 -0.900000 0.000000
v -0.675000 -1.125000 0.000000
v -0.450000 1.125000 0.000000
v -0.450000 0.900000 0.000000
v -0.450000 0.675000 0.000000
v -0.450000 0.450000 0.000000
v -0.450000 0.225000 0.000000
v -0.450000 0.000000 0.000000
v -0.450000 -0.225000 0.000000
v -0.450000 -0.450000 0.000000
v -0.450000 -0.675000 0.000000
v -0.450000 -0.900000 0.000000
v -0.450000 -1.125000 0.000000
v -0.225000 1.125000 0.000000
v -0.225000 0.900000 0.000000
v -0.225000 0.675000 0.000000
v -0.225000 0.450000 0.000000
v -0.225000 0.225000 0.000000
v -0.225000 0.000000 0.000000
v -0.225000 -0.225000 0.000000
v -0.225000 -0.450000 0.000000
v -0.225000 -0.675000 0.000000
v -0.225000 -0.900000 0.000000
v -0.225000 -1.125000 0.000000
v 0.000000 1.125000 0.000000
v 0.000000 0.900000 0.000000
v 0.000000 0.675000 0.000000
v 0.000000 0.450000 0.000000
v 0.000000 0.225000 0.000000
v 0.000000 0.000000 0.000000
v 0.000000 -0.225000 -0.000000
v 0.000000 -0.450000 -0.000000
v 0.000000 -0.675000 -0.000000
v 0.000000 -0.900000 -0.000000
v 0.000000 -1.125000 -0.000000
v 0.225000 1.125000 0.000000
v 0.225000 0.900000 0.000000
v 0.225000 0.675000 0.000000
v 0.225000 0.450000 0.000000
v 0.225000 0.225000 0.000000
v 0.225000 0.000000 0.000000
v 0.225000 -0.225000 0.000000
v 0.225000 -0.450000 0.000000
v 0.225000 -0.675000 0.000000
v 0.225000 -0.900000 0.000000
v 0.225000 -1.125000 0.000000
v 0.450000 1.125000 0.000000
v 0.450000 0.900000 0.000000
v 0.450000 0.675000 0.000000
v 0.450000 0.450000 0.000000
v 0.450000 0.225000 0.000000
v 0.450000 0.000000 0.000000
v 0.450000 -0.225000 0.000000
v 0.450000 -0.450000 0.000000
v 0.450000 -0.675000 0.000000
v 0.450000 -0.900000 0.000000
v 0.450000 -1.125000 0.000000
v 0.675000 1.125000 0.000000
v 0.675000 0.900000 0.000000
v 0.675000 0.675000 0.000000
v 0.675000 0.450000 0.000000
v 0.675000 0.225000 0.000000
v 0.675000 0.000000 0.000000
v 0.675000 -0.225000 0.000000
v 0.675000 -0.450000 0.000000
v 0.675000 -0.675000 0.000000
v 0.675000 -0.900000 0.000000
v 0.675000 -1.125000 0.000000
v 0.900000 1.125000 0.000000
v 0.900000 0.900000 0.000000
v 0.900000 0.675000 0.000000
v 0.900000 0.450000 0.000000
v 0.900000 0.225000 0.000000
v 0.900000 0.000000 0.000000
v 0.900000 -0.225000 0.000000
v 0.900000 -0.450000 0.000000
v 0.900000 -0.675000 0.000000
v 0.900000 -0.900000 0.000000
v 0.900000 -1.125000 0.000000
v 1.125000 1.125000 0.000000
v 1.125000 0.900000 0.000000
v 1.125000 0.675000 0.000000
v 1.125000 0.450000 0.000000
v 1.125000 0.225000 0.000000
v 1.125000 0.000000 0.000000
v 1.125000 -0.225000 0.000000
v 1.125000 -0.450000 0.000000
v 1.125000 -0.675000 0.000000
v 1.125000 -0.900000 0.000000
v 1.125000 -1.125000 0.000000
vt 0.001992 0.998008
vt 0.001992 0.898406
vt 0.101594 0.898406
vt 0.101594 0.998008
vt 0.001992 0.798805
vt 0.101594 0.798805
vt 0.201195 0.898406
vt 0.201195 0.998008
vt 0.001992 0.699203
vt 0.101594 0.699203
vt 0.201195 0.798805
vt 0.300797 0.898406
vt 0.300797 0.998008
vt 0.001992 0.599602
vt 0.101594 0.599602
vt 0.201195 0.699203
vt 0.300797 0.798805
vt 0.400398 0.898406
vt 0.400398 0.998008
vt 0.001992 0.500000
vt 0.101594 0.500000
vt 0.201195 0.599602
vt 0.300797 0.699203
vt 0.400398 0.798805
vt 0.500000 0.898406
vt 0.500000 0.998008
vt 0.001992 0.400398
vt 0.101594 0.400398
vt 0.201195 0.500000
vt 0.300797 0.599602
vt 0.400398 0.699203
vt 0.500000 0.798805
vt 0.599602 0.898406
vt 0.599602 0.998008
vt 0.001992 0.300797
vt 0.101594 0.300797
vt 0.201195 0.400398
vt 0.300797 0.500000
vt 0.400398 0.599602
vt 0.500000 0.699203
vt 0.599602 0.798805
vt 0.699203 0.898406
vt 0.699203 0.998008
vt 0.001992 0.201195
vt 0.101594 0.201195
vt 0.201195 0.300797
vt 0.300797 0.400398
vt 0.400398 0.500000
vt 0.500000 0.599602
vt 0.599602 0.699203
vt 0.699203 0.798805
vt 0.798805 0.898406
vt 0.798805 0.998008
vt 0.001992 0.101594
vt 0.101594 0.101594
vt 0.201195 0.201195
vt 0.300797 0.300797
vt 0.400398 0.400398
vt 0.500000 0.500000
vt 0.599602 0.599602
vt 0.699203 0.699203
vt 0.798805 0.798805
vt 0.898406 0.898406
vt 0.898406 0.998008
vt 0.001992 0.001992
vt 0.101594 0.001992
vt 0.201195 0.101594
vt 0.300797 0.201195
vt 0.400398 0.300797
vt 0.500000 0.400398
vt 0.599602 0.500000
vt 0.699203 0.599602
vt 0.798805 0.699203
vt 0.898406 0.798805
vt 0.998008 0.898406
vt 0.998008 0.998008
vt 0.201195 0.001992
vt 0.300797 0.101594
vt 0.400398 0.201195
vt 0.500000 0.300797
vt 0.599602 0.400398
vt 0.699203 0.500000
vt 0.798805 0.599602
vt 0.898406 0.699203
vt 0.998008 0.798805
vt 0.300797 0.001992
vt 0.400398 0.101594
vt 0.500000 0.201195
vt 0.599602 0.300797
vt 0.699203 0.400398
vt 0.798805 0.500000
vt 0.898406 0.599602
vt 0.998008 0.699203
vt 0.400398 0.001992
vt 0.500000 0.101594
vt 0.599602 0.201195
vt 0.699203 0.300797
vt 0.798805 0.400398
vt 0.898406 0.500000
vt 0.998008 0.599602
vt 0.500000 0.001992
vt 0.599602 0.101594
vt 0.699203 0.201195
vt 0.798805 0.300797
vt 0.898406 0.400398
vt 0.998008 0.500000
vt 0.599602 0.001992
vt 0.699203 0.101594
vt 0.798805 0.201195
vt 0.898406 0.300797
vt 0.998008 0.400398
vt 0.699203 0.001992
vt 0.798805 0.101594
vt 0.898406 0.201195
vt 0.998008 0.300797
vt 0.798805 0.001992
vt 0.898406 0.101594
vt 0.998008 0.201195
vt 0.898406 0.001992
vt 0.998008 0.101594
vt 0.998008 0.001992
vn 0.000000 0.000000 1.000000
vn 0.000000 0.000000 1.000000
vn 0.000000 0.000000 1.000000
vn 0.000000 0.000000 1.000000
vn 0.000000 0.000000 1.000000
vn 0.000000 0.000000 1.000000
vn 0.000000 0.000000 1.000000
vn 0.000000 0.000000 1.000000
vn 0.000000 0.000000 1.000000
vn 0.000000 0.000000 1.000000
vn 0.000000 0.000000 1.000000
vn 0.000000 0.000000 1.000000
vn 0.000000 0.000000 1.000000
vn 0.000000 0.000000 1.000000
vn 0.000000 0.000000 1.000000
vn 0.000000 0.000000 1.000000
vn 0.000000 0.000000 1.000000
vn 0.000000 0.000000 1.000000
vn 0.000000 0.000000 1.000000
vn 0.000000 0.000000 1.000000
vn 0.000000 0.000000 1.000000
vn 0.000000 0.000000 1.000000
vn 0.000000 0.000000 1.000000
vn 0.000000 0.000000 1.000000
vn 0.000000 0.000000 1.000000
vn 0.000000 0.000000 1.000000
vn 0.000000 0.000000 1.000000
vn 0.000000 0.000000 1.000000
vn 0.000000 0.000000 1.000000
vn 0.000000 0.000000 1.000000
vn 0.000000 0.000000 1.000000
vn 0.000000 0.000000 1.000000
vn 0.000000 0.000000 1.000000
vn 0.000000 0.000000 1.000000
vn 0.000000 0.000000 1.000000
vn 0.000000 0.000000 1.000000
vn 0.000000 0.000000 1.000000
vn 0.000000 0.000000 1.000000
vn 0.000000 0.000000 1.000000
vn 0.000000 0.000000 1.000000
vn 0.000000 0.000000 1.000000
vn 0.000000 0.000000 1.000000
vn 0.000000 0.000000 1.000000
vn 0.000000 0.000000 1.000000
vn -0.000000 0.000000 1.000000
vn -0.000000 -0.000000 1.000000
vn -0.000000 -0.000000 1.000000
vn -0.000000 -0.000000 1.000000
vn -0.000000 -0.000000 1.000000
vn -0.000000 -0.000000 1.000000
vn 0.000000 -0.000000 1.000000
vn 0.000000 -0.000000 1.000000
vn 0.000000 -0.000000 1.000000
vn 0.000000 -0.000000 1.000000
vn 0.000000 -0.000000 1.000000
vn 0.000000 -0.000000 1.000000
vn 0.000000 -0.000000 1.000000
vn 0.000000 -0.000000 1.000000
vn 0.000000 -0.000000 1.000000
vn 0.000000 -0.000000 1.000000
vn 0.000000 -0.000000 1.000000
vn 0.000000 -0.000000 1.000000
vn 0.000000 -0.000000 1.000000
vn 0.000000 -0.000000 1.000000
vn 0.000000 -0.000000 1.000000
vn 0.000000 -0.000000 1.000000
vn 0.000000 -0.000000 1.000000
vn 0.000000 -0.000000 1.000000
vn 0.000000 -0.000000 1.000000
vn 0.000000 -0.000000 1.000000
vn 0.000000 -0.000000 1.000000
vn -0.000000 -0.000000 1.000000
vn -0.000000 -0.000000 1.000000
vn -0.000000 -0.000000 1.000000
vn -0.000000 -0.000000 1.000000
vn -0.000000 -0.000000 1.000000
vn -0.000000 0.000000 1.000000
vn 0.000000 0.000000 1.000000
vn 0.000000 0.000000 1.000000
vn 0.000000 0.000000 1.000000
vn 0.000000 0.000000 1.000000
vn 0.000000 0.000000 1.000000
vn 0.000000 0.000000 1.000000
vn 0.000000 0.000000 1.000000
vn 0.000000 0.000000 1.000000
vn 0.000000 0.000000 1.000000
vn 0.000000 0.000000 1.000000
vn 0.000000 0.000000 1.000000
vn 0.000000 0.000000 1.000000
vn 0.000000 0.000000 1.000000
vn 0.000000 0.000000 1.000000
vn 0.000000 0.000000 1.000000
vn 0.000000 0.000000 1.000000
vn 0.000000 0.000000 1.000000
vn 0.000000 0.000000 1.000000
vn 0.000000 0.000000 1.000000
vn 0.000000 0.000000 1.000000
vn 0.000000 0.000000 1.000000
vn 0.000000 0.000000 1.000000
vn 0.000000 0.000000 1.000000
vn 0.000000 0.000000 1.000000
vn 0.000000 0.000000 1.000000
vn 0.000000 0.000000 1.000000
vn 0.000000 0.000000 1.000000
vn 0.000000 0.000000 1.000000
vn 0.000000 0.000000 1.000000
vn 0.000000 0.000000 1.000000
vn 0.000000 0.000000 1.000000
vn 0.000000 0.000000 1.000000
vn 0.000000 0.000000 1.000000
vn 0.000000 0.000000 1.000000
vn 0.000000 0.000000 1.000000
vn 0.000000 0.000000 1.000000
vn 0.000000 0.000000 1.000000
vn 0.000000 0.000000 1.000000
vn 0.000000 0.000000 1.000000
vn 0.000000 0.000000 1.000000
vn 0.000000 0.000000 1.000000
vn 0.000000 0.000000 1.000000
vn 0.000000 0.000000 1.000000
vn 0.000000 0.000000 1.000000
s 1
g pPlane1
usemtl phong1SG
f 1/1/1 2/2/2 12/4/3
f 12/4/3 2/2/2 13/3/4
f 2/2/2 3/5/5 13/3/4
f 13/3/4 3/5/5 14/6/6
f 3/5/5 4/9/7 14/6/6
f 14/6/6 4/9/7 15/10/8
f 4/9/7 5/14/9 15/10/8
f 15/10/8 5/14/9 16/15/10
f 5/14/9 6/20/11 16/15/10
f 16/15/10 6/20/11 17/21/12
f 6/20/11 7/27/13 17/21/12
f 17/21/12 7/27/13 18/28/14
f 7/27/13 8/35/15 18/28/14
f 18/28/14 8/35/15 19/36/16
f 8/35/15 9/44/17 19/36/16
f 19/36/16 9/44/17 20/45/18
f 9/44/17 10/54/19 20/45/18
f 20/45/18 10/54/19 21/55/20
f 10/54/19 11/65/21 21/55/20
f 21/55/20 11/65/21 22/66/22
f 12/4/3 13/3/4 23/8/23
f 23/8/23 13/3/4 24/7/24
f 13/3/4 14/6/6 24/7/24
f 24/7/24 14/6/6 25/11/25
f 14/6/6 15/10/8 25/11/25
f 25/11/25 15/10/8 26/16/26
f 15/10/8 16/15/10 26/16/26
f 26/16/26 16/15/10 27/22/27
f 16/15/10 17/21/12 27/22/27
f 27/22/27 17/21/12 28/29/28
f 17/21/12 18/28/14 28/29/28
f 28/29/28 18/28/14 29/37/29
f 18/28/14 19/36/16 29/37/29
f 29/37/29 19/36/16 30/46/30
f 19/36/16 20/45/18 30/46/30
f 30/46/30 20/45/18 31/56/31
f 20/45/18 21/55/20 31/56/31
f 31/56/31 21/55/20 32/67/32
f 21/55/20 22/66/22 32/67/32
f 32/67/32 22/66/22 33/77/33
f 23/8/23 24/7/24 34/13/34
f 34/13/34 24/7/24 35/12/35
f 24/7/24 25/11/25 35/12/35
f 35/12/35 25/11/25 36/17/36
f 25/11/25 26/16/26 36/17/36
f 36/17/36 26/16/26 37/23/37
f 26/16/26 27/22/27 37/23/37
f 37/23/37 27/22/27 38/30/38
f 27/22/27 28/29/28 38/30/38
f 38/30/38 28/29/28 39/38/39
f 28/29/28 29/37/29 39/38/39
f 39/38/39 29/37/29 40/47/40
f 29/37/29 30/46/30 40/47/40
f 40/47/40 30/46/30 41/57/41
f 30/46/30 31/56/31 41/57/41
f 41/57/41 31/56/31 42/68/42
f 31/56/31 32/67/32 42/68/42
f 42/68/42 32/67/32 43/78/43
f 32/67/32 33/77/33 43/78/43
f 43/78/43 33/77/33 44/86/44
f 34/13/34 35/12/35 45/19/45
f 45/19/45 35/12/35 46/18/46
f 35/12/35 36/17/36 46/18/46
f 46/18/46 36/17/36 47/24/47
f 36/17/36 37/23/37 47/24/47
f 47/24/47 37/23/37 48/31/48
f 37/23/37 38/30/38 48/31/48
f 48/31/48 38/30/38 49/39/49
f 38/30/38 39/38/39 49/39/49
f 49/39/49 39/38/39 50/48/50
f 39/38/39 40/47/40 50/48/50
f 50/48/50 40/47/40 51/58/51
f 40/47/40 41/57/41 51/58/51
f 51/58/51 41/57/41 52/69/52
f 41/57/41 42/68/42 52/69/52
f 52/69/52 42/68/42 53/79/53
f 42/68/42 43/78/43 53/79/53
f 53/79/53 43/78/43 54/87/54
f 43/78/43 44/86/44 54/87/54
f 54/87/54 44/86/44 55/94/55
f 45/19/45 46/18/46 56/26/56
f 56/26/56 46/18/46 57/25/57
f 46/18/46 47/24/47 57/25/57
f 57/25/57 47/24/47 58/32/58
f 47/24/47 48/31/48 58/32/58
f 58/32/58 48/31/48 59/40/59
f 48/31/48 49/39/49 59/40/59
f 59/40/59 49/39/49 60/49/60
f 49/39/49 50/48/50 60/49/60
f 60/49/60 50/48/50 61/59/61
f 50/48/50 51/58/51 61/59/61
f 61/59/61 51/58/51 62/70/62
f 51/58/51 52/69/52 62/70/62
f 62/70/62 52/69/52 63/80/63
f 52/69/52 53/79/53 63/80/63
f 63/80/63 53/79/53 64/88/64
f 53/79/53 54/87/54 64/88/64
f 64/88/64 54/87/54 65/95/65
f 54/87/54 55/94/55 65/95/65
f 65/95/65 55/94/55 66/101/66
f 56/26/56 57/25/57 67/34/67
f 67/34/67 57/25/57 68/33/68
f 57/25/57 58/32/58 68/33/68
f 68/33/68 58/32/58 69/41/69
f 58/32/58 59/40/59 69/41/69
f 69/41/69 59/40/59 70/50/70
f 59/40/59 60/49/60 70/50/70
f 70/50/70 60/49/60 71/60/71
f 60/49/60 61/59/61 71/60/71
f 71/60/71 61/59/61 72/71/72
f 61/59/61 62/70/62 72/71/72
f 72/71/72 62/70/62 73/81/73
f 62/70/62 63/80/63 73/81/73
f 73/81/73 63/80/63 74/89/74
f 63/80/63 64/88/64 74/89/74
f 74/89/74 64/88/64 75/96/75
f 64/88/64 65/95/65 75/96/75
f 75/96/75 65/95/65 76/102/76
f 65/95/65 66/101/66 76/102/76
f 76/102/76 66/101/66 77/107/77
f 67/34/67 68/33/68 78/43/78
f 78/43/78 68/33/68 79/42/79
f 68/33/68 69/41/69 79/42/79
f 79/42/79 69/41/69 80/51/80
f 69/41/69 70/50/70 80/51/80
f 80/51/80 70/50/70 81/61/81
f 70/50/70 71/60/71 81/61/81
f 81/61/81 71/60/71 82/72/82
f 71/60/71 72/71/72 82/72/82
f 82/72/82 72/71/72 83/82/83
f 72/71/72 73/81/73 83/82/83
f 83/82/83 73/81/73 84/90/84
f 73/81/73 74/89/74 84/90/84
f 84/90/84 74/89/74 85/97/85
f 74/89/74 75/96/75 85/97/85
f 85/97/85 75/96/75 86/103/86
f 75/96/75 76/102/76 86/103/86
f 86/103/86 76/102/76 87/108/87
f 76/102/76 77/107/77 87/108/87
f 87/108/87 77/107/77 88/112/88
f 78/43/78 79/42/79 89/53/89
f 89/53/89 79/42/79 90/52/90
f 79/42/79 80/51/80 90/52/90
f 90/52/90 80/51/80 91/62/91
f 80/51/80 81/61/81 91/62/91
f 91/62/91 81/61/81 92/73/92
f 81/61/81 82/72/82 92/73/92
f 92/73/92 82/72/82 93/83/93
f 82/72/82 83/82/83 93/83/93
f 93/83/93 83/82/83 94/91/94
f 83/82/83 84/90/84 94/91/94
f 94/91/94 84/90/84 95/98/95
f 84/90/84 85/97/85 95/98/95
f 95/98/95 85/97/85 96/104/96
f 85/97/85 86/103/86 96/104/96
f 96/104/96 86/103/86 97/109/97
f 86/103/86 87/108/87 97/109/97
f 97/109/97 87/108/87 98/113/98
f 87/108/87 88/112/88 98/113/98
f 98/113/98 88/112/88 99/116/99
f 89/53/89 90/52/90 100/64/100
f 100/64/100 90/52/90 101/63/101
f 90/52/90 91/62/91 101/63/101
f 101/63/101 91/62/91 102/74/102
f 91/62/91 92/73/92 102/74/102
f 102/74/102 92/73/92 103/84/103
f 92/73/92 93/83/93 103/84/103
f 103/84/103 93/83/93 104/92/104
f 93/83/93 94/91/94 104/92/104
f 104/92/104 94/91/94 105/99/105
f 94/91/94 95/98/95 105/99/105
f 105/99/105 95/98/95 106/105/106
f 95/98/95 96/104/96 106/105/106
f 106/105/106 96/104/96 107/110/107
f 96/104/96 97/109/97 107/110/107
f 107/110/107 97/109/97 108/114/108
f 97/109/97 98/113/98 108/114/108
f 108/114/108 98/113/98 109/117/109
f 98/113/98 99/116/99 109/117/109
f 109/117/109 99/116/99 110/119/110
f 100/64/100 101/63/101 111/76/111
f 111/76/111 101/63/101 112/75/112
f 101/63/101 102/74/102 112/75/112
f 112/75/112 102/74/102 113/85/113
f 102/74/102 103/84/103 113/85/113
f 113/85/113 103/84/103 114/93/114
f 103/84/103 104/92/104 114/93/114
f 114/93/114 104/92/104 115/100/115
f 104/92/104 105/99/105 115/100/115
f 115/100/115 105/99/105 116/106/116
f 105/99/105 106/105/106 116/106/116
f 116/106/116 106/105/106 117/111/117
f 106/105/106 107/110/107 117/111/117
f 117/111/117 107/110/107 118/115/118
f 107/110/107 108/114/108 118/115/118
f 118/115/118 108/114/108 119/118/119
f 108/114/108 109/117/109 119/118/119
f 119/118/119 109/117/109 120/120/120
f 109/117/109 110/119/110 120/120/120
f 120/120/120 110/119/110 121/121/121
