# This file uses centimeters as units for non-parametric coordinates.

mtllib pyramidCube.mtl
g default
v -0.500000 -0.500000 0.500000
v 0.500000 -0.500000 0.500000
v 0.000000 0.500000 0.000000
v -0.500000 -0.500000 -0.500000
v 0.500000 -0.500000 -0.500000
vt 0.375000 0.000000
vt 0.625000 0.000000
vt 0.500000 0.250000
vt 0.500000 0.500000
vt 0.375000 0.750000
vt 0.625000 0.750000
vt 0.375000 1.000000
vt 0.625000 1.000000
vt 0.875000 0.000000
vt 0.125000 0.000000
vn 0.000000 0.447214 0.894427
vn 0.577350 0.577350 0.577350
vn 0.554700 0.832050 0.000000
vn 0.000000 0.447214 -0.894427
vn 0.577350 0.577350 -0.577350
vn 0.000000 -1.000000 0.000000
vn 0.000000 -1.000000 0.000000
vn 0.000000 -1.000000 0.000000
vn 0.000000 -1.000000 0.000000
vn -0.894427 0.447214 0.000000
vn -0.894427 0.447214 0.000000
vn -0.894427 0.447214 0.000000
s 1
g pCube1
usemtl phong1SG
f 1/1/1 2/2/2 3/3/3
f 4/5/4 3/4/3 5/6/5
s 2
f 4/5/6 5/6/7 1/7/8
f 1/7/8 5/6/7 2/8/9
s 1
f 2/2/2 5/9/5 3/3/3
s off
f 4/10/10 1/1/11 3/3/12
